<?xml version="1.0" encoding="utf-8"?>
<!-- Generator: Adobe Illustrator 24.0.0, SVG Export Plug-In . SVG Version: 6.00 Build 0)  -->
<svg version="1.1" id="Layer_1" xmlns="http://www.w3.org/2000/svg" xmlns:xlink="http://www.w3.org/1999/xlink" x="0px" y="0px"
	 viewBox="0 0 373.1 127.5" style="enable-background:new 0 0 373.1 127.5;" xml:space="preserve">
<style type="text/css">
	.st0{fill:#098178;}
	.st1{fill:#1A1A1A;}
</style>
<path class="st0" d="M363.8,74.9c0.1-0.1,0.1-0.4,0-0.5c0-0.1-0.1-0.1-0.1-0.2c0,0,0.1,0,0.1-0.1c0.5-0.3,0.1-1.2-0.4-0.9
	c-0.1,0.1-0.2,0.1-0.3,0.1c-4.8-5.4-20-2.3-25.7-1.6c-14.9,1.7-29.3,7-40.9,16.4c-2.7,1-5.4,2.2-7.9,3.5c-0.2,0.1-0.4,0.1-0.6,0.2
	c7.8-6.8,15.2-14.1,22.6-21.2c1.6,0.6,3.6,0.6,5.2,0.5c1.9-0.2,3.9-0.6,5.7-1.4c0.2,0.3,0.4,0.6,0.7,0.8c1.9,1.6,5.6-0.4,6.6-2.3
	c0.9-1.8-0.7-3.4-2.4-3.7c-0.9-0.1-1.7,0-2.5,0.3c-0.1-0.1-0.3-0.1-0.5,0c-0.5,0.4-0.9,0.8-1.3,1.3c-0.1,0.1-0.2,0.3-0.3,0.4
	c-0.4,0.8-0.7,1.6-0.5,2.4c-3.1,1.4-6.4,1.2-9.7,0.7c1-1,2-1.9,3-2.9c3.1-2.9,5.8-6,8.4-9.3c-0.1,0.3,0.1,0.9,0.6,0.7
	c0.6-0.3,1.2-0.4,1.8-0.6c2.1-0.1,4.3-0.5,6.5-1c-0.1,2.6,1.4,5.5,4.1,6c0.3,0.1,0.3-0.3,0.2-0.4c-0.6-0.9-1.5-1.4-2.2-2.2
	c-0.9-1-1.4-2.2-1.5-3.5c1.3-0.3,2.6-0.6,3.9-1c0.9,1.7,4.3,2.6,6.1,2.2c0,0.1,0,0.2,0.1,0.2c0,0.5,0.1,1,0.3,1.4
	c0.1,0.5,0.3,1.1,0.7,1.6c1.3,1.7,3.9,2.1,5.9,1.7c2-0.4,4.1-2.4,3.9-4.6c-0.2-2.1-2.3-2.9-4-3.3c-1.9-0.4-4.4-0.1-5.9,1.3
	c-0.3,0.3-0.5,0.6-0.6,0.9c-0.9-0.5-2.1-0.5-3.2-0.8c-0.9-0.2-1.5-0.6-2.2-1.1c1.4-0.5,2.7-1,4.1-1.5c0,0.1,0,0.1,0,0.2
	c0.1,0.2,0.5,0.3,0.6,0c0-0.2,0.1-0.4,0.1-0.6c2.5-1.1,4.9-2.3,7.1-3.7c1.4,2.9,6.4,3.9,9.7,1.5c1.3-0.3,2.5-0.8,3.5-1.4
	c1.2-0.7,2.6-1.7,3.7-2.9c0.2-0.1,0.4-0.2,0.5-0.3c2.8-1.4,9-5.6,4.9-9c-0.7-0.6-1.8-0.9-3-0.9c-1.4-1-3.4-1.2-5.4-0.9
	c-5.3,0.2-10.2,4.8-13.2,9.1c-0.8,1.2-1.2,2.3-1.2,3.2c0,0-0.1,0.1-0.1,0.1c-0.1,0.2-0.2,0.4-0.1,0.6c-2,1.2-4.1,2.1-6.2,2.9
	c0.1-0.9,0.2-1.8,0.4-2.7c0.3-1.1,0.7-2.1,1.2-3c0.6,0.1,1.3,0.1,1.8,0c0.8-0.1,1.5-0.5,1.9-1.2c0.7-1.2,0.1-2.8-1.1-3.4
	c-0.3-0.2-0.6-0.2-1-0.2c0.2-0.3-0.2-0.8-0.5-0.6c-0.4,0.3-1,0.7-1.5,1.3c0,0-0.1,0.1-0.1,0.1c0,0,0,0,0,0c-0.2,0.2-0.3,0.4-0.4,0.6
	c-0.6,0.9-0.9,1.9-0.3,2.8c0.1,0.1,0.2,0.3,0.4,0.4c-1.2,1.9-2.1,4.2-2.1,6.4c-5.4,1.9-11.2,3.1-16.7,5c0-0.1,0-0.2-0.1-0.3
	c-0.1-0.2-0.4-0.4-0.6-0.5c2-2.5,3.8-5.2,5.6-7.9c0,0,0,0,0.1-0.1c0.7-1,1.4-2,2.1-3.1c0.5-0.8,1-1.6,1.5-2.4
	c4.1-1.8,8.5-4.1,12.1-7c3.3,0.6,7,0,9.9-1.7c0.4-0.3,0.1-1-0.3-0.7c-2.7,1.6-5.7,1.8-8.7,1.7c2-1.7,3.7-3.6,5.1-5.8
	c0.1,0,0.2,0.1,0.3,0.1c0.5,0.2,0.8-0.6,0.4-0.8c-0.1,0-0.1-0.1-0.2-0.1c0.1-0.3,0.3-0.5,0.4-0.8c0.4,0.4,0.9,0.6,1.3,0.6
	c0.7,0.3,1.6,0.4,2.4,0.4c4.3-0.4,7.2-6,8-9.6c0.8-3.5-0.4-7.7-4.5-7.8c-0.3,0-0.6,0-0.9,0c-1.1,0-2,0.5-2.8,1.1
	c-2.6,1.8-4.6,5.2-5.7,7.5c-1.3,2.8-2,6.9,0.7,8.9c-1.8,2.5-4.1,4.4-6.5,6c0,0,0,0,0,0c-0.2,0-0.3,0.1-0.3,0.2
	c-3.2,2.1-6.7,3.9-9.9,6.4c2-3.6,3.6-7.6,3.6-11.6c0.6,0.1,1.2,0,1.9-0.2c3.4-1.4,3-6.7,2.4-9.5c-0.7-3.2-2.2-7.5-5.4-8.9
	c-3.4-1.5-5.4,3.7-5.7,6.1c-0.6,4.7,1.5,11.6,5.7,14.2c0,0,0.1,0,0.1,0c-0.9,5.6-4.2,10.6-7.3,15.4c-0.4-1.5-1.1-2.9-1.3-4.4
	c-0.2-1.2-0.1-2.5,0-3.8c0.4,0,0.8,0,1.2-0.1c0.2-0.1,0.3-0.2,0.3-0.4c0.2-0.1,0.5-0.3,0.6-0.5c0.6-0.8,0.8-2,0.6-3.1
	c0-0.8-0.2-1.6-0.5-2.3c-0.3-0.6-0.8-1-1.4-1.2c0,0-0.1-0.1-0.1-0.1c0,0,0,0,0,0c0.1-0.1,0-0.4-0.2-0.4c-1.8,0.1-3.4,2.7-3.6,4.3
	c-0.2,1.5,0.6,2.9,1.9,3.5c0.1,0,0.1,0,0.2,0.1c0.1,0.1,0.3,0.1,0.4,0.2c-0.5,3.2-0.6,6.9,1.3,9.2c-0.1,0.2-0.3,0.5-0.4,0.7
	c-5,7.9-11.5,14.6-18.3,21c-0.3-0.1-0.6-0.1-0.8-0.2c-0.2,0-0.3,0.2-0.2,0.4c0.1,0.1,0.3,0.2,0.4,0.3c-0.1,0.1-0.3,0.3-0.4,0.4
	c-4.7,4.5-9.4,8.8-14.1,13.1c4.2-4.3,7-9.6,9-15.4c0,0,0.1-0.1,0.1-0.1c0.2,0.2,0.4,0.2,0.6,0.1c6.8-7.2,8.9-16.7,9.5-26.3
	c0.3-5.1,0.1-10.3-0.8-15.4c-0.9-5.8-4.9-10.1-6.1-15.7c-0.1-0.4-0.6-0.4-0.8-0.1c-4.8,9.7-6.2,19.9-6.2,30.7
	c0,8.3-0.8,18.2,1.9,26.3c-1.7,5-4,9.8-7.2,14.5c0,0,0,0,0,0c-1.5,1.9-3,3.8-4.6,5.7c-8.8,7.7-17.8,15.1-27.4,22.1
	c-0.4,0.3,0,0.9,0.4,0.7c7.7-4.7,15-10.2,21.9-16.1c0,0,0,0,0,0c0.2-0.1,0.3-0.2,0.5-0.3c1.6-0.5,3.2-1.1,4.8-1.6
	c0,0.1,0.1,0.2,0.2,0.2c0.8-0.2,1.6-0.4,2.3-0.6c13.6-0.7,27.3,2,40.8-0.4C345.1,89.6,356.2,83.6,363.8,74.9z M326.6,66.1
	c0.6,0.2,1.1,0.6,1,1.3c-0.4,1.5-3.1,2.7-4.5,2.2c-0.1,0-0.2-0.1-0.3-0.2c1.6,0.1,2.9-0.8,3.8-2.2c0.2-0.4,0-0.8-0.4-0.9
	C326.3,66.3,326.4,66.2,326.6,66.1z M322.3,68c0-0.1,0-0.2,0.1-0.3c0.4-0.3,0.7-0.8,1.1-1.1c0.5-0.4,1.3-0.6,2-0.6c0,0,0,0,0.1,0
	C324.3,66.6,323.3,67.3,322.3,68C322.3,68,322.3,68,322.3,68z M350.3,59.1c0.2-0.3,0.3-0.6,0.4-1c0.1,0,0.1,0,0.1,0
	c0.4,0.1,0.6-0.3,0.5-0.6c1,1.2-0.7,2.9-1.7,3.3c-0.8,0.4-1.7,0.4-2.6,0.2C348.4,60.9,349.6,60.2,350.3,59.1z M346.4,59.1
	c1,0.1,2-0.1,2.9-0.5c-0.5,0.6-1.3,0.9-2,1.1c-0.6,0.1-1.7,0-2.5-0.3c0.4-0.1,0.8-0.3,1.2-0.4C346.1,59,346.3,59.1,346.4,59.1z
	 M347.8,56.3c0.3,0,0.7,0,1.1,0.1c-1.6,0.4-3,1.3-4.4,2.3c0.1-0.6,0.4-1.2,0.9-1.8c0,0,0-0.1,0-0.1
	C346.1,56.4,347.1,56.3,347.8,56.3z M355.5,45.6c0.6-0.6,1.3-1.1,2.1-1.4c0.4-0.1,0.9-0.1,1.3,0c0.3,0.1,0.5-0.2,0.6-0.5
	c0,0,0.1,0,0.1,0c-0.8,1.8-2.7,3.1-4.6,2.8C355.1,46.1,355.3,45.9,355.5,45.6z M353.5,50.8c-1.4,0-2.3-0.4-2.7-1
	c0.6,0.2,1.3,0.3,2,0.4c0.3,0.2,0.7,0.4,1,0.6C353.7,50.8,353.6,50.8,353.5,50.8z M359.8,45.7c0.6-0.7,1-1.6,1.1-2.5
	c0-0.3-0.2-0.6-0.5-0.6c-0.5,0-1,0.1-1.5,0.2c0,0,0,0,0,0c2.6-1,5.3-1.7,7.7-1.8C365.3,43.3,362.7,44.8,359.8,45.7z M362.9,46.4
	c1.4-0.7,2.6-1.6,3.7-2.6c-0.3,0.5-0.7,1-1.1,1.4C364.4,45.8,363.5,46.2,362.9,46.4z M368.4,38.1c0.8,0.5,1.3,1.3,1.5,2.4
	c0.1,0.5,0.7,0.3,0.7-0.1c-0.1-0.8-0.3-1.4-0.5-2c0.1,0,0.2,0.1,0.3,0.1c2.4,1.5,0.7,3.4-1.8,5.1c0.3-0.6,0.5-1.2,0.6-1.8
	c0.2-1.5-0.3-2.7-1.1-3.5C368.2,38.1,368.3,38.1,368.4,38.1z M365.9,38.4c0.4,0.2,0.7,0.4,1,0.7c-1.9,0.1-4,0.5-6.1,1.1
	C362.6,39.5,364.3,38.8,365.9,38.4z M358.1,39.8c1-1,2.2-1.8,3.6-2.2c0.4-0.1,0.8-0.2,1.2-0.3c0,0,0,0,0,0c0.1,0.1,0.3,0.1,0.5,0.2
	C361.6,38,359.8,38.8,358.1,39.8z M345.3,43.9c0.3-0.3-0.3-0.7-0.5-0.4c-0.2,0.2-0.4,0.4-0.5,0.7c-0.1-0.6,0.2-1.2,0.8-1.6
	c0.3-0.1,0.6-0.2,0.9-0.1c0.5,0.2,0.9,0.8,0.7,1.3c-0.2,0.6-1.1,0.8-1.8,0.8C345,44.4,345.1,44.1,345.3,43.9z M362.3,19.7
	c-0.9,2.9-3,6.4-6.1,7.3c0,0,0,0,0,0c1.1-1,2.1-2.4,2.8-3.6c0.1,0,0.2,0,0.2-0.1c2.6-2.4,3.4-6.3,2.3-9.6c-0.1-0.3-0.2-0.5-0.4-0.8
	C362.9,14.1,362.8,17.8,362.3,19.7z M353.1,17.3c1.8-2.3,3.9-4.1,5.5-4.6c0.1,0,0.1,0,0.2,0c0.8,0.3,1.4,1.1,1.6,2.4
	c0.2,1.1,0.2,2.3,0,3.4c-0.2-1.7-1.2-3-3.3-3C355.6,15.6,354.3,16.3,353.1,17.3z M351.9,21.3c0.8-2.1,3.4-4.3,5.7-4.2
	c1.2,0.1,1.5,0.9,1.3,2c0,0,0-0.1,0-0.1c-0.1-0.3-0.5-0.5-0.8-0.4c-1.8,0.4-5.2,2.7-6.5,5.2C351.6,22.9,351.6,22,351.9,21.3z
	 M350,23.7c0.1,1.4,0.8,2.6,1.8,3.5c-0.2,0.3-0.3,0.6-0.5,0.9C350,27,349.7,25.4,350,23.7z M353.1,26.4c-0.1-0.2-0.2-0.5-0.2-0.9
	c0-1.1,1.1-2.3,1.8-3c0.7-0.7,3.4-3.3,3.1-1.5c0,0.2,0.1,0.4,0.3,0.5c-0.9,1.8-2.3,3.7-2.7,4.1c-0.3,0.3-1.4,1.3-2.1,1.1
	C353.3,26.6,353.2,26.5,353.1,26.4z M340.2,26.8c-0.3,0.6-0.7,1.1-1,1.3c1.4-2.3,1.8-5.2,1.3-7.8C341,22.4,341.2,24.8,340.2,26.8z
	 M338.8,19.5c0,0,0.1,0,0.1-0.1c0,0.1,0,0.1,0.1,0.2c0.6,2.6,0.4,5.5-1,7.7C336,25.2,335.8,20.6,338.8,19.5z M332.3,20.9
	c-0.4-2.1-0.1-9.6,3.7-8.4c1.2,0.4,2.1,1.6,2.8,3c-1-1.5-2.4-2.5-4.3-1.2c-1.8,1.2-2.4,4-2.2,6.9C332.3,21.1,332.3,21,332.3,20.9z
	 M334.7,16.2c1.7-2.8,3.2,0.3,3.9,2.3c-0.1,0-0.1,0-0.2,0c-3.9,0.3-3.9,5.2-2.4,8.4c-0.5-0.6-1-1.4-1.3-2
	C333.5,22.1,333,18.9,334.7,16.2z M334.2,27.2c0.7,1.1,1.6,1.9,2.5,2.3c0,0.3,0,0.6-0.1,0.9C335.7,29.6,334.9,28.5,334.2,27.2z
	 M328.2,37.3c0.1-0.4,0.1-0.9,0.2-1.3c0.1-0.3-0.4-0.5-0.5-0.2c0,0.2-0.1,0.4-0.1,0.6c0-0.1,0-0.1,0-0.2c-0.1-0.9,0.3-1.8,0.9-2.5
	c0.1-0.1,0.1-0.1,0.1-0.2c0.1,0,0.2,0.2,0.4,0.4c0.4,0.9,0.4,2.1-0.1,2.9C328.8,37.2,328.5,37.3,328.2,37.3z M301,43.8
	c-0.2-9.7,0.6-19.2,3.9-28.3c0.5-1.3,0.9-1.9,1.3-2.1c-2.5,8.4-2.1,18.2-3.2,26.9c-1,8.5,0.1,17-0.4,25.5c-0.1,0.2-0.1,0.5-0.2,0.7
	C301,58.9,301.2,51.3,301,43.8z M306.7,13.7c0.7,3.2,1.4,6.4,1.9,9.5c-1.6,13.2-1.8,26.2-4.8,38.4c0.1-6.1-0.4-12.2-0.1-18.3
	c0.3-5.2,1.2-10.4,1.7-15.6C305.8,23,305.6,18.4,306.7,13.7z M308.8,24.9c2.1,13.9,1.8,27.3-4.1,40.7
	C308.4,52.5,308.1,37.3,308.8,24.9z M307.9,14.5c0.8,1.5,1.5,3.9,2.1,5c2.7,5.1,3,11.3,3.1,16.9c0.2,10.4-1.6,20.1-7.4,28.6
	C313.4,50,312.1,30.4,307.9,14.5z M360.4,73.7c0.2,0.3,0.2,0.5,0.2,0.9c-1,0.4-1.9,0.8-2.9,1.1C358.6,75,359.5,74.4,360.4,73.7z
	 M351.5,74.8c-1.4,0-2.7,0.1-4.1,0.2c3.8-0.8,8-2,11.9-1.5c-1.6,1.2-3.2,2.2-4.9,3.1c-3.1,0.7-6.3,1.1-9.6,1.5
	c-7.7,0.9-15.3,2.6-22.9,3.8c-2.7,0.4-5.4,0.9-8.1,1.4c5.2-1.7,10.5-3.3,16-4.6c1.8-0.4,3.6-0.8,5.4-1.2c5.4-0.7,10.9-1.3,16.4-2.2
	C351.8,75.3,351.8,74.7,351.5,74.8z M356.6,72.2c0.7,0.1,1.4,0.2,1.9,0.3c-5.8-0.8-13.5,1.5-19.5,3.1c-12.6,1.3-25.1,4.1-36.6,9.5
	c-0.3,0.2-0.1,0.7,0.2,0.5c6.9-3.2,13.9-5.1,21-6.4c-6.8,1.7-13.7,3.7-20.1,6.5c-1.7,0.5-3.4,1-5,1.6
	C314.6,75.4,336.8,70.3,356.6,72.2z M297.7,89.6c-1.4,0.2-2.9,0.5-4.4,0.8c1.4-0.6,2.7-1.1,4.1-1.6c-0.1,0.2,0.1,0.4,0.3,0.3
	c2-0.8,4.1-1.6,6.1-2.3c7.7-2.1,15.6-3.5,23.6-4.8c6.7-1.1,14.2-1.5,21.4-2.9c-6.3,2.5-13.1,3.7-20.1,4.4
	c-10.4,1.1-20.7,3.5-30.8,6.2C298,89.6,297.9,89.6,297.7,89.6z M349.8,84.6c-6.4,3.6-13.6,5.7-20.8,6.6c-7.3,1-14.6,0.1-22-0.4
	c1.1-0.1,2.2-0.3,3.3-0.4c8.6-0.9,17.1-1.9,25.7-3.2c4.3-0.7,10-1.5,14.9-3.3C350.5,84.2,350.1,84.5,349.8,84.6z M331.2,86.9
	c-7,1.2-14.1,1.8-21.1,2.7c-2.4,0.3-4.9,0.7-7.3,1c-1.7-0.1-3.4,0-5.2,0c0,0-0.1,0-0.1,0c-0.1,0-0.2,0-0.3,0
	c11.5-2.9,23-5.4,34.7-6.5c7.6-0.8,15.1-2.5,21.7-6c2.3-0.6,4.5-1.3,6.6-2.2c-0.2,0.4-0.5,0.9-0.9,1.4
	C352.5,84.4,340.6,85.4,331.2,86.9z"/>
<g>
	<path class="st1" d="M40.1,56.6c-0.1,3.8,0.6,7.4,3.1,9.8c8.6-3.2,19.9-6,23.3-0.4c4.6,7.5-11.9,8.6-16.5,8.8
		c-2.5,0.1-4.9-0.1-7.1-0.4c-2,0.8-3.9,2-5.9,3.1c-10.6,6.7-17.6,16.3-17,28c1.1,25.4,44.1,8.5,46.7-8.8c0.6-4,13.7-3.5,13.1,0
		c-3.6,23-64.1,43.1-72.4,13.7C2.6,93,17.3,78.1,33.6,70.4c-4.3-3.2-6.7-8.1-6.6-13.9C16,54.9,5.4,49.8,0.3,41.1
		c-2.2-3.6,10.6-4.7,12.7-1.5c3.3,5.7,8.8,8.9,15.1,10.3c3.9-14.2,20.5-24,36.8-25c8.9-0.6,21.6,2.1,18.3,12.1
		C79.2,49,55.9,55.4,40.1,56.6z M68.9,30.4c-4.2-2.6-16.7,5.3-19,7.1c-4.3,3.5-7.5,7.9-8.9,13c1-0.1,1.8-0.1,2.8-0.3
		C47.8,49.5,80.6,38.1,68.9,30.4z"/>
	<path class="st1" d="M136.1,82.1c-1,5.3-16.5,7.7-18,7.8c-0.1,0-0.1,0-0.3,0v0.1c0,0.1-0.1,0.3-0.1,0.3c0,0.3-0.1,0.4-0.1,0.7
		c-0.1,0.1-0.3,0.4-0.3,0.6c-5.3,14.2-15.3,26.6-28.6,31.8c-15.2,6.1-22.9-7-22.6-18.4c0.3-12.6,2.5-25.1,6-36.5
		c1.1-3.8,14.2-2.5,13,1.5c-1.8,5.7-3.1,11.6-4,17.6c-1,5.6-5,29.3,4,27.3c3.8-2.9,7.3-6.4,10.3-10c4.6-5.4,8.1-11.7,10.2-18.4
		c-6.8-4.2-11.2-11.7-4.9-17.8c1.5-1.5,4.2-2.6,7-2.9c5.2-0.7,11.2,0.8,13,6.3c0.1,0.6,0.3,1.1,0.4,1.8c0.4,2.6,0,5.7-0.7,8.6
		c6.6-1.7,9.2-4.2,9.5-4.3C136.6,73.1,136.4,78,136.1,82.1z"/>
	<path class="st1" d="M192.6,106.8c-4.6,10.6-24.1,28.6-35.3,9.9c-0.8-1.4-1.4-2.8-1.7-4.3c-7.5,8.6-17.2,14.8-28,11.6
		c-14.9-4.3-7.9-22.6-3.5-32.4c7-15.2,19.1-26.6,36.3-24c0.8,0.1,1.7,0.3,2.4,0.4c0.4,0.1,0.7,0.3,1.1,0.4c1.5,0.6,2.7,1.3,3.6,2.2
		c4-0.7,10.5,0.8,10.2,1.5c-3.8,8.8-7,18.1-8.5,27.6c-1,6.1-1,11.3,1.7,16.6c0.3-0.1,0.4-0.3,0.8-0.7c1.1-0.8,2.2-1.8,3.2-2.8
		c1.8-1.8,3.5-3.9,4.6-6.1C180.8,103.3,193,105.7,192.6,106.8z M156.6,74.5c-0.1-0.4-0.4-0.7-0.7-0.8c-9.6-2.1-18.1,16.9-20.8,23.7
		c-1.5,4.2-3.2,8.6-3.5,13.2c-0.1,1.8-0.3,3.6,0.6,5.3c0.3,0.6,0.7,1.3,1.4,1.8c0.6,0,0.7-0.1,1.1-0.3c1.4-0.6,2.5-1.7,3.8-2.6
		c2.9-2.5,5.4-5.6,7.7-8.6c4.7-6.6,9.6-14.4,11.3-22.3C158.1,80.3,158,77.7,156.6,74.5z M155.6,73.5c0,0,0.1,0,0.3,0.1
		C155.7,73.5,155.6,73.5,155.6,73.5z"/>
	<path class="st1" d="M244.2,111c-8.2,10.2-32.6,23.8-37.8,2.9c-2.1-8.5,4-23.8,9.6-30.1c0.1-0.3,0.1-0.6,0.3-0.8
		c-2.1,0.4-4.3,0.7-6,0.8c-1.4,0.1-2.8,0.1-4.2,0.1c-0.6,1.1-1,2.4-1.4,3.2c-5.9,10.5-5.9,10.5-11.9,19.8c-2.6,4.2-15.5,2.2-12.7-2
		c7.4-11.4,7.9-13,13.7-24.8c-6.1-4.2-9.1-11.7-1.7-17.8c5-4.3,17.7-5,19.2,3.2c0.6,2.9-0.6,6.8-2,10.6c1.5-0.1,3.2-0.7,4.7-1
		c2.9-0.6,6-1.1,8.9-0.7c13.9,2.2,2.6,16.3-0.6,23.6c-2.1,4.6-6.1,20.5,0.3,18.3c3.8-1.3,7.5-6,10-9.1
		C235.8,103.6,248.3,106,244.2,111z"/>
	<path class="st1" d="M307.6,106.8c-4.6,10.6-24.1,28.6-35.3,9.9c-0.8-1.4-1.4-2.8-1.7-4.3c-7.5,8.6-17.2,14.8-28,11.6
		c-14.9-4.3-7.9-22.6-3.5-32.4c7-15.2,19.1-26.6,36.3-24c0.8,0.1,1.7,0.3,2.4,0.4c0.4,0.1,0.7,0.3,1.1,0.4c1.5,0.6,2.6,1.3,3.6,2.2
		c4-0.7,10.5,0.8,10.2,1.5c-3.8,8.8-7,18.1-8.5,27.6c-1,6.1-1,11.3,1.7,16.6c0.3-0.1,0.4-0.3,0.8-0.7c1.1-0.8,2.2-1.8,3.2-2.8
		c1.8-1.8,3.5-3.9,4.6-6.1C295.9,103.3,308,105.7,307.6,106.8z M271.6,74.5c-0.1-0.4-0.4-0.7-0.7-0.8c-9.6-2.1-18.1,16.9-20.8,23.7
		c-1.5,4.2-3.2,8.6-3.5,13.2c-0.1,1.8-0.3,3.6,0.6,5.3c0.3,0.6,0.7,1.3,1.4,1.8c0.6,0,0.7-0.1,1.1-0.3c1.4-0.6,2.5-1.7,3.8-2.6
		c2.9-2.5,5.4-5.6,7.7-8.6c4.7-6.6,9.6-14.4,11.3-22.3C273.2,80.3,273,77.7,271.6,74.5z M270.7,73.5c0,0,0.1,0,0.3,0.1
		C270.8,73.5,270.7,73.5,270.7,73.5z"/>
</g>
<g>
</g>
<g>
</g>
<g>
</g>
<g>
</g>
<g>
</g>
<g>
</g>
<g>
</g>
<g>
</g>
<g>
</g>
<g>
</g>
<g>
</g>
<g>
</g>
<g>
</g>
<g>
</g>
<g>
</g>
</svg>
